<svg version="1.2" xmlns="http://www.w3.org/2000/svg" viewBox="0 0 400 129" width="400" height="129">
	<title>New Project</title>
	<style>
		.s0 { fill: #189e18 } 
		.s1 { fill: #ffffff } 
	</style>
	<path id="pods" fill-rule="evenodd" class="s0" d="m115 108.8v-83.4h14.4l0.1 6.9c3.5-5.7 8.8-8.4 15.7-8.4 14.3 0 24.5 11.3 24.5 30.4 0 17.1-8.6 29.2-23.2 29.2-7 0-12.5-2.9-16.8-8.9v34.2zm39.6-55.5c0-10.2-5.3-17.2-12.8-17.2-7.1 0-12.6 6.7-12.6 16.2 0 12.3 4.2 18.4 12.5 18.4 8.7 0 12.9-5.8 12.9-17.4zm19.3 0.4c0-17.9 11.1-29.8 29.1-29.8 17.7 0 28.7 11.8 28.7 29.8 0 18-11.1 29.8-28.7 29.8-18.3 0-29.1-12.2-29.1-29.8zm42.8 0c0-11.5-4.6-17.1-13.7-17.1-9.1 0-13.7 5.6-13.7 17.1 0 11.5 4.6 17.3 13.7 17.3 9.1 0 13.7-5.8 13.7-17.3zm59.7 28.3l-0.2-6.9c-3.5 5.8-8.8 8.4-15.7 8.4-14.3 0-24.5-11.3-24.5-30.4 0-17.1 8.6-29.2 23.2-29.2 7 0 12.6 2.9 16.8 8.9v-28.1h14.7v77.3zm0.3-26.9c0-12.3-4.3-18.4-12.6-18.4-8.7 0-12.9 5.9-12.9 17.5 0 10.1 5.3 17.1 12.8 17.1 7.1 0 12.7-6.7 12.7-16.2zm54.7-12.5c-0.8-5.6-3.8-7.5-10.6-7.5-5.6 0-8.8 1.4-8.8 4.7 0 3.3 3.1 4.7 9.2 6.4 6.4 1.9 12.5 3.1 16.9 4.9 6 2.4 9.3 6.3 9.3 13.7 0 11.7-8.6 18.7-24.7 18.7-17.4 0-27.1-8.2-27.3-19.7h15.4c0 5.3 4.5 8.4 11.7 8.4 5.3 0 10.1-1.6 10.1-5.8 0-4.1-4.3-5.3-9.1-6.5-9.6-2.3-14.9-3.9-18.9-6.4-5.3-3.4-7.1-7.7-7.1-12.8 0-9.5 6.5-16.8 23.8-16.8 16.3 0 23.7 6.5 24.5 18.7z"/>
	<path id="2" class="s1" d="m106.4 100v-13h-32.9c0.4-3.9 4.8-9.4 10.6-13.7 16.4-11.6 22.1-18.3 22.1-29.9 0-15-10.5-22.3-25.9-22.3-15.6 0-24.8 9.9-24.8 26.3h14.4c0-10.2 4.3-13.5 11.1-13.5 5.9 0 10.6 2.3 10.6 10 0 6.4-3.2 10.3-14.1 18.1-19.6 14.1-22.9 23.9-23 38z"/>
	<path id="Shape 1" class="s1" d="m106 87h248v13h-248z"/>
	<path id="Shape 1 copy" class="s0" d="m130 100v24h-15v-24z"/>
</svg>